<svg width="652" height="720" xmlns="http://www.w3.org/2000/svg" xmlns:xlink="http://www.w3.org/1999/xlink" overflow="hidden"><defs><clipPath id="clip0"><rect x="314" y="0" width="652" height="720"/></clipPath></defs><g clip-path="url(#clip0)" transform="translate(-314 0)"><path d="M0.144889 447.562C0.289778 298.036 0.434667 136.123 0.579556 87.8751L0.724444 0 29.5573 0 58.3178 0 58.1004 76.0667C57.8831 117.867 58.028 153.22 58.2453 154.596 58.7524 157.204 63.896 162.203 103.958 199.222 112.361 206.901 121.634 215.522 124.604 218.348 127.647 221.173 134.167 227.258 139.093 231.822 144.092 236.386 151.047 242.906 154.669 246.311 158.291 249.716 165.608 256.526 170.969 261.524 176.33 266.523 183.14 272.898 186.182 275.724 189.152 278.549 196.18 284.996 201.758 290.14 207.336 295.284 214.363 301.804 217.333 304.629 220.304 307.454 224.868 311.728 227.476 314.119 230.084 316.51 237.256 323.175 243.413 328.97 279.056 362.15 281.592 364.396 282.388 364.396 283.185 364.396 286.59 360.701 291.372 354.616 293.617 351.863 297.674 346.792 300.427 343.387 315.423 324.913 337.084 298.109 371.278 255.729 374.103 252.252 380.261 244.645 385.042 238.704 389.824 232.836 400.111 220.159 407.862 210.524 415.614 200.888 424.597 189.732 427.784 185.748 460.892 144.889 466.035 138.586 482.842 117.722 492.188 106.204 502.837 92.9462 506.532 88.3822 514.283 78.8196 528.555 61.2156 539.639 47.4511 549.564 35.208 561.01 21.0089 568.327 12.0258 571.514 8.11378 574.919 3.83956 575.933 2.46311L577.744 0.0724444 614.908 0 652 0 652 4.70889C652 8.11378 651.71 9.41778 651.058 9.41778 650.551 9.41778 648.45 11.4462 646.422 13.9818 630.629 33.5418 609.91 59.1871 593.248 79.6889 589.263 84.6876 580.86 95.0471 574.629 102.799 568.327 110.55 561.01 119.678 558.184 123.083 555.432 126.56 548.622 134.892 543.188 141.629 533.916 153.22 528.337 160.102 502.909 191.543 497.186 198.57 490.376 207.046 487.696 210.306 465.6 237.763 458.501 246.528 455.458 250.296 453.502 252.686 450.17 256.743 448.069 259.351 445.968 261.959 440.028 269.276 434.884 275.651 429.74 282.026 422.786 290.647 419.453 294.776 416.048 298.978 410.47 305.933 406.92 310.28 403.443 314.626 397.213 322.305 393.156 327.304 389.027 332.375 382.289 340.779 378.088 345.922 373.886 351.138 366.424 360.339 361.498 366.496 356.499 372.654 351.645 378.667 350.631 379.899 349.689 381.13 344.546 387.433 339.257 393.953 333.1 401.487 329.622 406.341 329.622 407.428 329.622 408.659 333.244 412.499 343.604 422.061 351.211 429.161 357.658 435.174 357.876 435.391 358.093 435.608 367.366 444.229 378.522 454.516 389.679 464.876 401.56 475.96 404.964 479.148 408.369 482.408 415.396 488.928 420.54 493.781 425.756 498.563 437.492 509.502 446.62 518.05 455.82 526.599 467.846 537.755 473.424 542.971 479.003 548.115 487.624 556.084 492.622 560.72 497.621 565.356 508.705 575.644 517.253 583.612 543.551 607.954 573.832 636.135 595.493 656.347 642.22 699.886 650.044 707.058 650.986 707.058 651.783 707.058 652 708.217 652 711.622L652 716.258 644.973 716.693C641.061 716.983 636.062 717.2 633.816 717.2 628.383 717.2 624.761 717.924 626.065 718.721 626.572 719.084 615.778 719.373 601.868 719.373 578.614 719.373 576.73 719.301 576.296 718.142 576.006 717.417 567.675 709.376 557.75 700.176 533.698 677.935 532.684 676.993 528.482 673.081 526.526 671.198 520.151 665.33 514.356 659.969 508.56 654.608 494.723 641.785 483.567 631.426 472.41 621.066 454.154 604.114 442.998 593.755 431.841 583.395 420.105 572.456 416.918 569.486 410.325 563.256 405.616 558.836 390.476 544.782 384.68 539.421 377.87 533.046 375.262 530.583 372.654 528.192 365.337 521.383 358.962 515.442 344.618 502.112 333.969 492.188 312.598 472.265 277.607 439.593 266.016 429.016 264.712 428.292 260.655 426.263 240.516 422.206 227.548 420.902 208.93 419.091 186.472 421.192 165.898 426.77 123.663 438.289 85.4844 467.339 62.1573 505.807L57.5933 513.269 57.1587 563.256C56.8689 590.784 56.6516 636.424 56.5791 664.678 56.5067 693.004 56.2893 716.838 56.072 717.78L55.6373 719.373 27.8187 719.373 0 719.373 0.144889 447.562ZM62.8093 417.063C66.6489 413.658 77.0809 405.761 83.3836 401.56 99.9733 390.403 120.692 380.406 140.542 373.886 157.639 368.308 170.607 365.41 185.096 363.961 190.167 363.454 192.702 362.657 192.702 361.57 192.702 361.063 176.257 345.415 162.928 333.172 159.957 330.492 143.802 315.423 136.92 308.976 133.515 305.788 128.806 301.369 126.416 299.196 124.097 297.022 119.316 292.603 115.911 289.416 112.506 286.228 102.726 277.1 94.1778 269.131 85.6293 261.162 74.4729 250.803 69.4018 246.094 63.3164 240.371 59.7667 237.618 59.0422 237.908 58.1004 238.27 57.9556 246.818 57.9556 310.207 57.9556 349.762 57.7382 389.679 57.4484 398.879 57.2311 408.08 57.2311 416.483 57.5209 417.497 58.1729 420.105 59.5493 419.96 62.8093 417.063Z" fill="#0D0D0D" transform="matrix(1 0 0 -1.00087 314 720)"/><path d="M199.584 608.606C191.253 606.505 186.4 603.824 180.314 597.739 172.273 589.77 169.013 582.381 168.288 571.224 167.564 558.547 171.186 548.404 179.517 539.856 187.993 531.163 197.121 527.251 209.002 527.251 220.811 527.251 229.939 531.163 238.415 539.711 256.091 557.605 253.918 586.293 233.706 601.579 229.069 605.056 223.998 607.302 217.478 608.823 211.031 610.272 206.032 610.2 199.584 608.606Z" fill="#0D0D0D" transform="matrix(1 0 0 -1.00087 314 720)"/></g></svg>